# xmcd
#
# Track frame offsets: 
#        150
#        11952
#        22963
#        35732
#        51746
#        65790
#        77582
#        91349
#        104366
#        116174
#        125847
#        140555
#        152540
#        168512
#
# Disc length: 2515 seconds
#
# Revision: 0
# Processed by: cddbd v1.5.2PL0 Copyright (c) Steve Scherf et al.
# Submitted via: ExactAudioCopy v0.99pb5
#
DISCID=ca09d10e
DTITLE=Лиля Муромцева - Любовь
DYEAR=2011
DGENRE=Acoustic
TTITLE0=Встречи
TTITLE1=А снег идёт...
TTITLE2=Прощальный луч
TTITLE3=Снегопад
TTITLE4=Колыбельная для кота
TTITLE5=Ландыши
TTITLE6=Песенка о Моцарте
TTITLE7=Тайна
TTITLE8=В лунном сиянье
TTITLE9=Валенки
TTITLE10=Как ночи хороши...
TTITLE11=Ой, снег, снежок
TTITLE12=Уходит вечер
TTITLE13=Прощание с новогодней ёлкой
EXTD=
EXTT0=
EXTT1=
EXTT2=
EXTT3=
EXTT4=
EXTT5=
EXTT6=
EXTT7=
EXTT8=
EXTT9=
EXTT10=
EXTT11=
EXTT12=
EXTT13=
PLAYORDER=
